						<!-- Generator: Adobe Illustrator 23.0.0, SVG Export Plug-In . SVG Version: 6.00 Build 0)  -->
                        <svg version="1.1"
                             id="svg25" inkscape:version="0.92.3 (2405546, 2018-03-11)" sodipodi:docname="logo-banco-inter.svg" xmlns:cc="http://creativecommons.org/ns#" xmlns:dc="http://purl.org/dc/elements/1.1/" xmlns:inkscape="http://www.inkscape.org/namespaces/inkscape" xmlns:rdf="http://www.w3.org/1999/02/22-rdf-syntax-ns#" xmlns:sodipodi="http://sodipodi.sourceforge.net/DTD/sodipodi-0.dtd" xmlns:svg="http://www.w3.org/2000/svg"
                             xmlns="http://www.w3.org/2000/svg" xmlns:xlink="http://www.w3.org/1999/xlink" x="0px" y="0px" viewBox="0 0 1085.7 391.2"
                             style="enable-background:new 0 0 1085.7 391.2;" xml:space="preserve">
                        <style type="text/css">
                            .st0{fill:#212121;}
                        </style>
                        <sodipodi:namedview  bordercolor="#666666" borderopacity="1.0" id="base" inkscape:current-layer="g56" inkscape:cx="822.55525" inkscape:cy="192.18238" inkscape:document-units="mm" inkscape:pageopacity="0.0" inkscape:pageshadow="2" inkscape:window-height="705" inkscape:window-maximized="1" inkscape:window-width="1366" inkscape:window-x="-8" inkscape:window-y="-8" inkscape:zoom="0.17" pagecolor="#ffffff" showgrid="false">
                            </sodipodi:namedview>
                        <g>

                                <path id="path7" inkscape:connector-curvature="0" inkscape:export-filename="C:\Users\victor\Desktop\logo banco inter.png" inkscape:export-xdpi="96" inkscape:export-ydpi="96" class="st0" d="
                                M352.9,63.8c-9.7,0-18.4-7.6-18.4-17.3c0,0,0,0,0-1.1c0-9.7,7.6-18.4,18.4-18.4c10.8,0,18.4,8.7,18.4,18.4
                                C371.3,56.2,363.8,63.8,352.9,63.8L352.9,63.8z M352.9,22.6c-14.1,0-23.8,10.8-23.8,22.7c0,11.9,9.7,22.7,23.8,22.7
                                c14.1,0,23.8-10.8,23.8-22.7C376.8,33.5,367,22.6,352.9,22.6z M288,57.3l3.2,3.2c-4.3,4.3-9.7,7.6-18.4,7.6
                                c-13,0-23.8-9.7-23.8-22.7s9.7-22.7,23.8-22.7c8.7,0,13,3.2,18.4,6.5l-3.2,3.2c-4.3-2.2-8.7-4.3-15.2-4.3
                                c-10.8,0-18.4,7.6-18.4,18.4s7.6,18.4,18.4,18.4C279.3,63.8,283.6,61.6,288,57.3L288,57.3z M201.3,23.7h5.4v44.4h-4.3l-30.3-35.7
                                v35.7h-5.4V23.7h5.4l29.2,35.7V23.7z M90.9,51.9l10.8-22.7l10.8,22.7C112.5,51.9,90.9,51.9,90.9,51.9z M99.5,23.7L77.9,68.1h5.4
                                l5.4-11.9h24.9l5.4,11.9h5.4l-21.7-44.4C103.9,23.7,99.5,23.7,99.5,23.7z M22.6,63.8H7.5V47.6h15.2c7.6,0,11.9,3.2,11.9,7.6
                                C34.6,60.5,30.2,63.8,22.6,63.8z M7.5,28.1h14.1c6.5,0,10.8,3.2,10.8,7.6c0,5.4-4.3,7.6-10.8,7.6H7.5V28.1z M29.1,45.4
                                c4.3-2.2,7.6-4.3,7.6-10.8c0-6.5-6.5-10.8-15.2-10.8H2.1v44.4h20.6c9.7,0,17.3-4.3,17.3-11.9C40,49.7,35.6,46.5,29.1,45.4z"/>

                                <path id="path9" inkscape:connector-curvature="0" inkscape:export-filename="C:\Users\victor\Desktop\logo banco inter.png" inkscape:export-xdpi="96" inkscape:export-ydpi="96" sodipodi:nodetypes="cccccscccccsscccccccsccccsccsccccccssccccscccccccssccsscccccc" class="st0" d="
                                M503.5,1v111.5h91v68.2h-91v104c0,22.7,10.8,32.5,32.5,34.7c24.9,3.2,44.4-7.6,58.5-14.1l2.2-1.1l28.2,60.6l-1.1,1.1
                                c-36.8,18.4-59.6,23.8-87.7,23.8c-68.2,0-105-37.9-105-106.1V38.9L503.5,1z M915,120.1h-1.1v261h72.6V177.5
                                c8.7-1.1,17.3-2.2,34.7-2.2s28.2,2.2,40.1,5.4h1.1l21.7-67.1h-2.2c-21.7-5.4-39-7.6-67.1-7.6C987.5,106,945.3,109.3,915,120.1
                                L915,120.1z M624.7,250.1c0-89.9,41.2-144,124.5-144c82.3,0,126.7,45.5,126.7,135.4L753.6,301l-31.4-59.6l78-40.1l0,0
                                c1.1-17.3-21.7-28.2-49.8-27.1c-32.5,2.2-50.9,17.3-50.9,72.6c0,54.1,26,72.6,65,72.6c34.7,0,68.2-5.4,85.6-10.8h1.1l21.7,65h-1.1
                                c-29.2,9.7-68.2,14.1-107.2,14.1C672.4,387.6,624.7,341,624.7,250.1L624.7,250.1z M142.8,120.1h-1.1v261h72.6V177.5
                                c13-2.2,22.7-2.2,42.2-2.2c35.7,0,53.1,15.2,53.1,45.5v161.4h72.6v-157c0-74.7-45.5-119.1-120.2-119.1
                                C218.6,106,169.9,111.4,142.8,120.1L142.8,120.1z M2.1,381.1h72.6V112.5H2.1V381.1z"/>
                        </g>
                        </svg>
