                        <!-- Generator: Adobe Illustrator 23.0.0, SVG Export Plug-In . SVG Version: 6.00 Build 0)  -->
                        <svg version="1.1"
                             id="svg2" inkscape:version="0.48.0 r9654" sodipodi:docname="New document 1" xmlns:cc="http://creativecommons.org/ns#" xmlns:dc="http://purl.org/dc/elements/1.1/" xmlns:inkscape="http://www.inkscape.org/namespaces/inkscape" xmlns:rdf="http://www.w3.org/1999/02/22-rdf-syntax-ns#" xmlns:sodipodi="http://sodipodi.sourceforge.net/DTD/sodipodi-0.dtd" xmlns:svg="http://www.w3.org/2000/svg"
                             xmlns="http://www.w3.org/2000/svg" xmlns:xlink="http://www.w3.org/1999/xlink" x="0px" y="0px" viewBox="0 0 205.5 46.6"
                             style="enable-background:new 0 0 205.5 46.6;" xml:space="preserve">
                        <style type="text/css">
                            .st0{fill-rule:evenodd;clip-rule:evenodd;fill:#212121;}
                            .st1{fill-rule:evenodd;clip-rule:evenodd;fill:#494949;}
                        </style>
                        <sodipodi:namedview  bordercolor="#666666" borderopacity="1.0" fit-margin-bottom="0" fit-margin-left="0" fit-margin-right="0" fit-margin-top="0" id="base" inkscape:current-layer="layer1" inkscape:cx="90.215542" inkscape:cy="-10.296408" inkscape:document-units="px" inkscape:pageopacity="0.0" inkscape:pageshadow="2" inkscape:window-height="532" inkscape:window-maximized="0" inkscape:window-width="607" inkscape:window-x="22" inkscape:window-y="26" inkscape:zoom="0.35" pagecolor="#ffffff" showgrid="false">
                            </sodipodi:namedview>
                        <g>
                            <path id="path3003" inkscape:connector-curvature="0" class="st0" d="M125.7,24.9H144l12.5,20.8h-18.3L125.7,24.9"/>
                            <path id="path3005" inkscape:connector-curvature="0" class="st1" d="M127.6,21.7h18.9L162.9,1H144L127.6,21.7"/>
                            <path id="path3007" inkscape:connector-curvature="0" class="st1" d="M108.7,45.8h18.9L144,24.8h-18.9L108.7,45.8"/>
                            <path id="path3009" inkscape:connector-curvature="0" class="st0" d="M115.5,0.8h17.6l12.1,20.9h-17.7L115.5,0.8"/>
                            <g>
                                <path id="path3001" inkscape:connector-curvature="0" class="st0" d="M62.9,15.4l-5.3,13.3h7.4L62.9,15.4L62.9,15.4L62.9,15.4z
                                     M34.7,45.9L56.5,0.9H73l9.2,44.9H67.7l-1.1-6H52.6l-3.2,6H34.7z M89.1,45.9l6.3-44.9H110l-6.3,44.9H89.1z M186.2,15.4l-5.3,13.3
                                    h7.4L186.2,15.4z M158,45.9l21.8-44.9h16.5l9.2,44.9H191l-1.1-6h-14.1l-3.2,6H158"/>
                                <path id="path3011" inkscape:connector-curvature="0" class="st0" d="M35.1,2.6l-1.4,13.2c-5.4-7.4-17.9-2.3-18.8,6.9
                                    c-1.2,11.7,10.8,14.5,17.3,7.6l-1.4,13.3c-1.9,1-3.9,1.7-5.7,2.2c-1.9,0.5-3.7,0.8-5.6,0.8c-2.3,0.1-4.5-0.2-6.4-0.7
                                    c-1.9-0.5-3.6-1.4-5.2-2.5c-2.9-2.2-5.1-4.9-6.4-8.2C0.2,31.7-0.3,28,0.2,23.7c0.4-3.4,1.2-6.5,2.6-9.3C4.1,11.6,6,9.1,8.3,6.8
                                    c2.3-2.2,4.7-3.9,7.4-5c2.6-1.1,5.5-1.7,8.6-1.8c1.9,0,3.7,0.1,5.5,0.6C31.6,1,33.4,1.7,35.1,2.6"/>
                            </g>
                            <g id="g3013" transform="matrix(1.25,0,0,-1.25,15.493106,1024.9702)">
                            </g>
                        </g>
                        </svg>
