<!-- Generator: Adobe Illustrator 23.0.0, SVG Export Plug-In . SVG Version: 6.00 Build 0)  -->
<svg version="1.1"
	 id="Camada_1" xmlns:cc="http://creativecommons.org/ns#" xmlns:dc="http://purl.org/dc/elements/1.1/" xmlns:rdf="http://www.w3.org/1999/02/22-rdf-syntax-ns#"
	 xmlns="http://www.w3.org/2000/svg" xmlns:xlink="http://www.w3.org/1999/xlink" x="0px" y="0px" viewBox="0 0 199.9 82.8"
	 style="enable-background:new 0 0 199.9 82.8;" xml:space="preserve">
<style type="text/css">
	.st0{fill-rule:evenodd;clip-rule:evenodd;fill:#050505;}
</style>
<g>
	<path class="st0" d="M0,81.1h18.7v-81H0V81.1z"/>
	<path class="st0" d="M102.4,18.6h-1.1h-1.1h-1l-1,0.1l-1,0.1l-1,0.1l-1,0.1l-0.9,0.1l-0.9,0.1l-0.9,0.1l-0.9,0.2l-0.9,0.2l-0.8,0.2
		l-0.8,0.2l-0.8,0.2l-0.8,0.2l-0.8,0.2L86,20.9l-0.7,0.2l-0.7,0.2l-0.7,0.2l-0.7,0.2l-0.6,0.2L82,22.2l-0.6,0.2l-0.6,0.3L80.2,23
		l-0.5,0.3l-0.5,0.3l-0.5,0.3l-0.5,0.3l-0.5,0.3l3.5,11.9l0.4-0.2L82,36l0.4-0.2l0.5-0.2l0.5-0.2l0.5-0.2l0.5-0.2l0.5-0.2l0.5-0.2
		l0.5-0.2l0.5-0.2L87,34l0.6-0.2l0.6-0.2l0.6-0.2l0.6-0.2L90,33l0.6-0.2l0.6-0.2l0.6-0.1l0.6-0.1l0.6-0.1l0.6-0.1l0.6-0.1l0.6-0.1
		l0.6-0.1l0.6-0.1h0.6l0.6-0.1h0.6h0.6H99h1h1l0.9,0.1l0.8,0.1l0.8,0.1l0.8,0.2l0.7,0.2l0.7,0.2l0.7,0.2L107,33l0.6,0.3l0.5,0.3
		l0.5,0.3l0.5,0.3l0.4,0.3l0.4,0.3l0.3,0.3l0.3,0.4l0.3,0.3l0.3,0.4l0.2,0.4l0.2,0.4l0.2,0.3l0.2,0.4l0.1,0.4l0.1,0.3l0.1,0.3
		l0.1,0.3l0.1,0.3v0.3v0.3v0.3v0.7h-2.2L108,41l-2.1,0.1l-2.1,0.2l-2,0.2l-2,0.3l-1.9,0.3l-1.8,0.4l-1.8,0.4l-1.7,0.4l-1.7,0.5
		l-1.6,0.5l-1.5,0.6l-1.4,0.6L85,46.2l-1.3,0.7l-1.2,0.8l-1.2,0.8l-1.1,0.9l-1,0.9l-0.9,0.9l-0.9,1l-0.8,1l-0.7,1.1l-0.6,1.1
		l-0.6,1.2l-0.5,1.2l-0.4,1.3l-0.3,1.3l-0.2,1.4l-0.1,1.4v1.4v0.9l0.1,0.9l0.1,0.9l0.2,0.9l0.2,0.9L74,70l0.3,0.8l0.3,0.8l0.4,0
		l0.4,0.8l0.4,0.8l0.5,0.8l0.5,0.7l0.6,0.7l0.6,0.7l0.6,0.7l0.7,0.6L80,78l0.8,0.6l0.8,0.5l0.8,0.5l0.9,0.5l0.9,0.4l0.9,0.4l1,0.4
		l1,0.3l1.1,0.3l1.1,0.2l1.1,0.2l1.2,0.1l1.2,0.1H94h0.7h0.7h0.7l0.7-0.1l0.7-0.1l0.7-0.1l0.7-0.1l0.7-0.1l0.7-0.2l0.7-0.2l0.7-0.2
		l0.7-0.2L103,81l0.6-0.2l0.6-0.2l0.6-0.2l0.6-0.3l0.6-0.3l0.6-0.3l0.6-0.3l0.5-0.3l0.5-0.3l0.5-0.3l0.5-0.3l0.5-0.4l0.5-0.4
		l0.5-0.4l0.4-0.4l0.4-0.4l0.4-0.4l0.4-0.4l0.4-0.5h0.2l2,6.3h15.2V45.1v-1.4l-0.1-1.3l-0.1-1.3l-0.1-1.3l-0.2-1.3l-0.3-1.3L129,36
		l-0.3-1.2l-0.4-1.2l-0.4-1.1l-0.5-1.1l-0.6-1.1l-0.6-1l-0.7-1l-0.7-1l-0.8-0.9l-0.8-0.9l-0.9-0.8l-1-0.8l-1-0.7l-1.1-0.7l-1.2-0.6
		l-1.2-0.6l-1.3-0.5l-1.4-0.5l-1.5-0.4l-1.5-0.4l-1.6-0.3l-1.7-0.2l-1.7-0.2l-1.8-0.1L102.4,18.6L102.4,18.6z M113,58.7v0.4v0.4v0.4
		v0.4v0.4v0.4l-0.1,0.4l-0.1,0.4V62l-0.1,0.2v0.2v0.1l-0.1,0.2l-0.1,0.2l-0.2,0.4l-0.2,0.4l-0.2,0.4l-0.2,0.4l-0.2,0.3l-0.2,0.4
		l-0.3,0.3l-0.3,0.3l-0.3,0.3l-0.3,0.3l-0.3,0.3l-0.3,0.3l-0.3,0.3l-0.3,0.3l-0.4,0.3l-0.4,0.3l-0.4,0.3l-0.4,0.3l-0.4,0.2l-0.4,0.2
		l-0.4,0.2l-0.5,0.2l-0.5,0.2l-0.5,0.2l-0.5,0.1l-0.5,0.1l-0.5,0.1l-0.5,0.1l-0.5,0.1h-0.5h-0.5h-0.5H100h-0.5H99l-0.5-0.1l-0.4-0.1
		l-0.4-0.1l-0.4-0.1L96.9,70l-0.4-0.1l-0.4-0.2l-0.4-0.2l-0.3-0.2l-0.3-0.2l-0.3-0.2l-0.3-0.2l-0.3-0.2l-0.3-0.3l-0.3-0.3l-0.3-0.3
		l-0.2-0.3L92.9,67l-0.2-0.3l-0.2-0.3l-0.2-0.3l-0.1-0.4l-0.1-0.4L92,64.9l-0.1-0.4l-0.1-0.4v-0.4v-0.5v-0.5v-0.5v-0.5l0.1-0.5
		l0.1-0.5l0.1-0.5l0.2-0.5l0.2-0.4l0.2-0.4l0.2-0.4l0.2-0.4l0.3-0.4l0.3-0.4L94,57l0.3-0.3l0.4-0.3l0.4-0.3l0.4-0.3l0.4-0.3l0.5-0.3
		l0.5-0.3l0.5-0.2l0.5-0.2l0.5-0.2l0.5-0.2l0.6-0.2l0.6-0.2l0.6-0.2l0.6-0.2l0.6-0.1l0.7-0.1l0.6-0.1l0.7-0.1l0.6-0.1l0.7-0.1
		l0.7-0.1l0.7-0.1h0.7l0.7-0.1h0.7h0.7h0.4h0.5h0.5h0.5h0.5h0.5h0.5h0.5L113,58.7L113,58.7z"/>
	<path class="st0" d="M181.7,20.4V56v0.5V57v0.5l-0.1,0.5l-0.1,0.5l-0.1,0.5l-0.1,0.5l-0.2,0.4l-0.1,0.3l-0.2,0.3l-0.2,0.3l-0.2,0.3
		l-0.2,0.3l-0.2,0.3l-0.2,0.3l-0.2,0.3l-0.3,0.3l-0.3,0.3l-0.3,0.3l-0.3,0.3l-0.3,0.3l-0.3,0.3l-0.3,0.3l-0.3,0.3l-0.4,0.3l-0.4,0.3
		l-0.4,0.2l-0.4,0.2l-0.4,0.2l-0.4,0.2l-0.4,0.2l-0.5,0.2l-0.5,0.2l-0.5,0.1l-0.5,0.1l-0.5,0.1l-0.5,0.1h-0.5h-0.5h-0.6h-0.7h-0.7
		l-0.7-0.1l-0.6-0.1l-0.6-0.1l-0.6-0.2l-0.6-0.2l-0.5-0.2l-0.5-0.3l-0.5-0.3l-0.5-0.3l-0.4-0.4l-0.4-0.4l-0.4-0.4l-0.4-0.4l-0.3-0.5
		l-0.3-0.5l-0.3-0.5l-0.3-0.6l-0.3-0.6l-0.2-0.6l-0.2-0.6l-0.2-0.7l-0.2-0.7l-0.1-0.7l-0.1-0.7l-0.1-0.8l-0.1-0.8l-0.1-0.8v-0.8
		v-0.9V52V19.9h-18.2v35.5v0.9v0.9V58v0.8l0.1,0.8l0.1,0.8l0.1,0.8l0.1,0.8l0.1,0.7l0.1,0.7l0.1,0.7l0.2,0.7l0.2,0.7l0.2,0.7
		l0.2,0.7l0.2,0.6l0.2,0.6l0.2,0.6l0.2,0.6l0.3,0.6l0.3,0.6l0.3,0.5l0.3,0.5l0.3,0.5l0.3,0.5l0.3,0.5l0.3,0.5l0.3,0.5l0.3,0.5
		l0.3,0.4l0.3,0.4l0.4,0.4l0.4,0.4l0.4,0.4l0.4,0.4l0.4,0.3l0.4,0.3l0.4,0.3l0.4,0.3l0.4,0.3l0.5,0.3l0.4,0.3l0.5,0.3l0.5,0.3
		l0.5,0.2l0.5,0.2l0.5,0.2l0.5,0.2l0.5,0.2l0.5,0.2l0.5,0.2l0.5,0.1l0.6,0.1l0.5,0.1l0.6,0.1l0.6,0.1l0.6,0.1l0.6,0.1l0.6,0.1
		l0.6,0.1h0.6h0.6h0.6h0.6h0.5h0.5h0.5h0.5h0.5h0.5h0.5l0.5-0.1l0.5-0.1l0.5-0.1l0.5-0.1l0.4-0.1l0.4-0.1l0.4-0.1l0.4-0.1l0.4-0.1
		l0.8-0.3l0.8-0.3l0.7-0.3l0.7-0.3l0.7-0.3l0.7-0.3l0.6-0.4l0.6-0.4l0.6-0.4l0.6-0.4l0.5-0.4l0.5-0.4l0.5-0.4l0.5-0.4l0.4-0.4
		l0.4-0.4l0.4-0.4l0.4-0.4l0.3-0.4l0.3-0.4l0.3-0.4l0.3-0.4l0.3-0.3l0.2-0.4l2.3,8.6h14.8V20L181.7,20.4L181.7,20.4z"/>
	<path class="st0" d="M36.2,0.1v20.3h-8.5v13.8h8.5v24.7v0.8v0.7v0.7v0.7v0.7l0.1,0.7l0.1,0.7l0.1,0.7l0.1,0.7l0.1,0.7l0.1,0.6
		l0.1,0.6l0.1,0.6l0.1,0.6l0.1,0.6l0.2,0.6l0.2,0.6l0.2,0.5l0.2,0.5l0.2,0.5l0.2,0.5l0.2,0.5l0.2,0.5l0.2,0.5l0.2,0.5l0.3,0.4
		l0.3,0.4l0.3,0.4l0.3,0.4l0.3,0.4l0.3,0.4l0.3,0.3l0.3,0.3l0.3,0.3l0.3,0.3l0.3,0.3l0.3,0.3l0.3,0.3l0.4,0.3l0.4,0.3l0.4,0.3
		l0.4,0.2l0.4,0.2l0.4,0.2l0.4,0.2l0.4,0.2l0.5,0.2l0.5,0.2l0.5,0.2l0.5,0.2l0.5,0.2l0.5,0.2l0.5,0.2l0.5,0.1l0.5,0.1l0.5,0.1
		l0.5,0.1l0.6,0.1l0.6,0.1l0.6,0.1l0.6,0.1h0.6h0.6H56h1h0.9h0.9l0.8-0.1l0.7-0.1l0.7-0.1l0.6-0.1l0.6-0.1l0.6-0.1l0.5-0.1l0.5-0.2
		l0.5-0.2l0.9-0.3l0.9-0.3V67l-0.2,0.1l-0.3,0.1l-0.4,0.1l-0.5,0.1l-0.5,0.1h-0.6H63h-0.7h-0.6h-0.6l-0.5-0.1l-0.5-0.1l-0.5-0.1
		l-0.5-0.1l-0.4-0.2l-0.4-0.2l-0.4-0.2l-0.4-0.2L57.2,66l-0.3-0.3l-0.3-0.3l-0.3-0.3L56,64.8l-0.2-0.4L55.6,64l-0.2-0.4l-0.2-0.4
		L55,62.8l-0.1-0.5l-0.1-0.5l-0.1-0.5l-0.1-0.5l-0.1-0.5l-0.1-0.6l-0.1-0.6v-0.6v-0.6v-0.6v-0.7v-0.7V34.4h11.6V20.6H54.4V0.3
		L36.2,0.1L36.2,0.1z"/>
	<path class="st0" d="M174.8,0l-11.3,16.4h13L192.4,0H174.8z"/>
</g>
</svg>
