<!-- Generator: Adobe Illustrator 23.0.0, SVG Export Plug-In . SVG Version: 6.00 Build 0)  -->
<svg version="1.1"
	 id="Camada_1" xmlns:cc="http://creativecommons.org/ns#" xmlns:dc="http://purl.org/dc/elements/1.1/" xmlns:rdf="http://www.w3.org/1999/02/22-rdf-syntax-ns#"
	 xmlns="http://www.w3.org/2000/svg" xmlns:xlink="http://www.w3.org/1999/xlink" x="0px" y="0px" viewBox="0 0 240 243"
	 style="enable-background:new 0 0 240 243;" xml:space="preserve">
<style type="text/css">
	.st0{fill-rule:evenodd;clip-rule:evenodd;fill:#212121;}
	.st1{fill-rule:evenodd;clip-rule:evenodd;fill:#050505;}
</style>
<path class="st0" d="M40.1,0h160.1l2.1,0l2,0.2l2,0.3l2,0.4l1.9,0.5l1.9,0.5l1.9,0.6l1.8,0.7l1.8,0.8l1.7,0.9l1.7,1l1.6,1.1l1.6,1.1
	l1.5,1.2l1.5,1.3l1.4,1.3l1.3,1.4l1.3,1.5l1.2,1.5l1.1,1.6l1,1.6l1,1.7l0.9,1.7l0.8,1.8l0.7,1.8l0.6,1.9l0.5,1.9l0.5,2l0.3,2l0.3,2
	l0.2,2.1l0,2.1v162l0,2.1l-0.2,2.1l-0.3,2l-0.3,2l-0.5,2l-0.5,1.9l-0.6,1.9l-0.7,1.8l-0.8,1.8l-0.9,1.7l-1,1.7l-1,1.6l-1.1,1.6
	l-1.2,1.5l-1.3,1.5l-1.3,1.4l-1.4,1.3l-1.5,1.3l-1.5,1.2l-1.6,1.1l-1.6,1l-1.7,1l-1.7,0.9l-1.8,0.8l-1.8,0.7l-1.9,0.6l-1.9,0.5
	l-1.9,0.5l-2,0.3l-2,0.3l-2,0.2l-2.1,0H40.1l-2.1,0l-2-0.2l-2-0.3l-2-0.3l-2-0.5l-1.9-0.5l-1.9-0.6l-1.8-0.7l-1.8-0.8l-1.7-0.9
	l-1.7-1l-1.6-1l-1.6-1.1l-1.5-1.2l-1.5-1.3l-1.4-1.3l-1.3-1.4l-1.2-1.5L8,226.7l-1.1-1.6l-1-1.6l-1-1.7l-0.9-1.7l-0.8-1.8l-0.7-1.8
	l-0.6-1.9l-0.5-1.9l-0.5-2l-0.3-2l-0.3-2L0,204.6l0-2.1v-162l0-2.1l0.2-2.1l0.3-2l0.3-2l0.5-2l0.5-1.9l0.6-1.9l0.7-1.8l0.8-1.8
	l0.9-1.7l1-1.7l1-1.6L8,16.2l1.2-1.5l1.2-1.5l1.3-1.4l1.4-1.3l1.5-1.3L16.1,8l1.6-1.1l1.6-1.1l1.7-1L22.7,4l1.8-0.8l1.8-0.7l1.9-0.6
	L30,1.2l2-0.5l2-0.4l2-0.3L38,0C38,0,40.1,0,40.1,0z"/>
<g>
	<path class="st1" d="M20,202.5h18.7v-81H20V202.5z"/>
	<path class="st1" d="M122.4,140h-1.1l-1.1,0l-1,0l-1,0.1l-1,0.1l-1,0.1l-1,0.1l-0.9,0.1l-0.9,0.1l-0.9,0.1l-0.9,0.2l-0.9,0.2
		l-0.8,0.2l-0.8,0.2l-0.8,0.2l-0.8,0.2l-0.8,0.2l-0.7,0.2l-0.7,0.2l-0.7,0.2l-0.7,0.2l-0.7,0.2l-0.6,0.2l-0.6,0.3l-0.6,0.2l-0.6,0.3
		l-0.6,0.3l-0.5,0.3l-0.5,0.3l-0.5,0.3l-0.5,0.3l-0.5,0.3l3.5,11.9l0.4-0.2l0.4-0.2l0.4-0.2l0.5-0.2l0.5-0.2l0.5-0.2l0.5-0.2
		l0.5-0.2l0.5-0.2l0.5-0.2l0.5-0.2l0.6-0.2l0.6-0.2l0.6-0.2l0.6-0.2l0.6-0.2l0.6-0.2l0.6-0.2l0.6-0.2l0.6-0.1l0.6-0.1l0.6-0.1
		l0.6-0.1l0.6-0.1l0.6-0.1l0.6-0.1l0.6-0.1l0.6,0l0.6-0.1l0.6,0l0.6,0h0.6l1,0l1,0l0.9,0.1l0.8,0.1l0.8,0.1l0.8,0.2l0.7,0.2l0.7,0.2
		l0.7,0.2l0.6,0.2l0.6,0.3l0.5,0.3l0.5,0.3l0.5,0.3l0.4,0.3l0.4,0.3l0.3,0.3l0.3,0.4l0.3,0.3l0.3,0.4l0.2,0.4l0.2,0.4l0.2,0.3
		l0.2,0.4l0.1,0.4l0.1,0.3l0.1,0.3l0.1,0.3l0.1,0.3l0,0.3l0,0.3v0.3v0.7l-2.2,0l-2.2,0.1l-2.1,0.1l-2.1,0.2l-2,0.2l-2,0.3l-1.9,0.3
		l-1.8,0.4l-1.8,0.4l-1.7,0.4l-1.7,0.5l-1.6,0.5l-1.5,0.6l-1.4,0.6l-1.4,0.7l-1.3,0.7l-1.2,0.8l-1.2,0.8l-1.1,0.9l-1,0.9l-0.9,0.9
		l-0.9,1l-0.8,1l-0.7,1.1l-0.6,1.1l-0.6,1.2l-0.5,1.2l-0.4,1.3l-0.3,1.3l-0.2,1.4l-0.1,1.4l0,1.4l0,0.9l0.1,0.9l0.1,0.9l0.2,0.9
		l0.2,0.9l0.2,0.9l0.3,0.8l0.3,0.8L95,193l0.4,0.8l0.4,0.8l0.5,0.8l0.5,0.7l0.6,0.7l0.6,0.7l0.6,0.7l0.7,0.6l0.7,0.6l0.8,0.6
		l0.8,0.5l0.8,0.5l0.9,0.5l0.9,0.4l0.9,0.4l1,0.4l1,0.3l1.1,0.3l1.1,0.2l1.1,0.2l1.2,0.1l1.2,0.1l1.2,0l0.7,0l0.7,0l0.7,0l0.7-0.1
		l0.7-0.1l0.7-0.1l0.7-0.1l0.7-0.1l0.7-0.2l0.7-0.2l0.7-0.2l0.7-0.2l0.6-0.2l0.6-0.2l0.6-0.2l0.6-0.2l0.6-0.3l0.6-0.3l0.6-0.3
		l0.6-0.3l0.5-0.3l0.5-0.3l0.5-0.3l0.5-0.3l0.5-0.4l0.5-0.4l0.5-0.4l0.4-0.4l0.4-0.4l0.4-0.4l0.4-0.4l0.4-0.5h0.2l2,6.3h15.2v-35.9
		l0-1.4l-0.1-1.3l-0.1-1.3l-0.1-1.3l-0.2-1.3l-0.3-1.3l-0.3-1.2l-0.3-1.2l-0.4-1.2l-0.4-1.1l-0.5-1.1l-0.6-1.1l-0.6-1l-0.7-1l-0.7-1
		l-0.8-0.9l-0.8-0.9l-0.9-0.8l-1-0.8l-1-0.7l-1.1-0.7l-1.2-0.6l-1.2-0.6l-1.3-0.5l-1.4-0.5l-1.5-0.4l-1.5-0.4l-1.6-0.3l-1.7-0.2
		l-1.7-0.2l-1.8-0.1L122.4,140L122.4,140z M133,180.1v0.4l0,0.4l0,0.4l0,0.4l0,0.4l0,0.4l-0.1,0.4l-0.1,0.4l0,0.1l-0.1,0.2l0,0.2
		l0,0.1l-0.1,0.2l-0.1,0.2l-0.2,0.4l-0.2,0.4l-0.2,0.4l-0.2,0.4l-0.2,0.3l-0.2,0.4l-0.3,0.3l-0.3,0.3l-0.3,0.3l-0.3,0.3l-0.3,0.3
		l-0.3,0.3l-0.3,0.3l-0.3,0.3l-0.4,0.3l-0.4,0.3l-0.4,0.3l-0.4,0.3l-0.4,0.2l-0.4,0.2l-0.4,0.2l-0.5,0.2l-0.5,0.2l-0.5,0.2l-0.5,0.1
		l-0.5,0.1l-0.5,0.1l-0.5,0.1l-0.5,0.1l-0.5,0l-0.5,0h-0.5H120l-0.5,0l-0.5,0l-0.5-0.1l-0.4-0.1l-0.4-0.1l-0.4-0.1l-0.4-0.1
		l-0.4-0.1l-0.4-0.2l-0.4-0.2l-0.3-0.2l-0.3-0.2l-0.3-0.2l-0.3-0.2l-0.3-0.2l-0.3-0.3l-0.3-0.3l-0.3-0.3l-0.2-0.3l-0.2-0.3l-0.2-0.3
		l-0.2-0.3l-0.2-0.3l-0.1-0.4l-0.1-0.4l-0.1-0.4l-0.1-0.4l-0.1-0.4l0-0.4l0-0.5l0-0.5l0-0.5l0-0.5l0.1-0.5l0.1-0.5l0.1-0.5l0.2-0.5
		l0.2-0.4l0.2-0.4l0.2-0.4l0.2-0.4l0.3-0.4l0.3-0.4l0.3-0.3l0.3-0.3l0.4-0.3l0.4-0.3l0.4-0.3l0.4-0.3l0.5-0.3l0.5-0.3l0.5-0.2
		l0.5-0.2l0.5-0.2l0.5-0.2l0.6-0.2l0.6-0.2l0.6-0.2l0.6-0.2l0.6-0.1l0.7-0.1l0.6-0.1l0.7-0.1l0.6-0.1l0.7-0.1l0.7-0.1l0.7-0.1l0.7,0
		l0.7-0.1l0.7,0l0.7,0l0.4,0l0.5,0l0.5,0h0.5h0.5h0.5h0.5h0.5L133,180.1L133,180.1z"/>
	<path class="st1" d="M201.7,141.8v35.6v0.5l0,0.5l0,0.5l-0.1,0.5l-0.1,0.5l-0.1,0.5l-0.1,0.5l-0.2,0.4l-0.1,0.3l-0.2,0.3l-0.2,0.3
		l-0.2,0.3l-0.2,0.3l-0.2,0.3l-0.2,0.3l-0.2,0.3l-0.3,0.3l-0.3,0.3l-0.3,0.3l-0.3,0.3l-0.3,0.3l-0.3,0.3l-0.3,0.3l-0.3,0.3l-0.4,0.3
		l-0.4,0.3l-0.4,0.2l-0.4,0.2l-0.4,0.2l-0.4,0.2l-0.4,0.2l-0.5,0.2l-0.5,0.2l-0.5,0.1l-0.5,0.1l-0.5,0.1l-0.5,0.1l-0.5,0l-0.5,0
		h-0.6l-0.7,0l-0.7,0l-0.7-0.1l-0.6-0.1l-0.6-0.1l-0.6-0.2l-0.6-0.2l-0.5-0.2l-0.5-0.3l-0.5-0.3l-0.5-0.3l-0.4-0.4l-0.4-0.4
		l-0.4-0.4l-0.4-0.4l-0.3-0.5l-0.3-0.5l-0.3-0.5l-0.3-0.6l-0.3-0.6l-0.2-0.6l-0.2-0.6l-0.2-0.7l-0.2-0.7l-0.1-0.7l-0.1-0.7l-0.1-0.8
		l-0.1-0.8l-0.1-0.8l0-0.8l0-0.9l0-0.9v-32.1h-18.2v35.5v0.9l0,0.9l0,0.8l0,0.8l0.1,0.8l0.1,0.8l0.1,0.8l0.1,0.8l0.1,0.7l0.1,0.7
		l0.1,0.7l0.2,0.7l0.2,0.7l0.2,0.7l0.2,0.7l0.2,0.6l0.2,0.6l0.2,0.6l0.2,0.6l0.3,0.6l0.3,0.6l0.3,0.5l0.3,0.5l0.3,0.5l0.3,0.5
		l0.3,0.5l0.3,0.5l0.3,0.5l0.3,0.5l0.3,0.4l0.3,0.4l0.4,0.4l0.4,0.4l0.4,0.4l0.4,0.4l0.4,0.3l0.4,0.3l0.4,0.3l0.4,0.3l0.4,0.3
		l0.5,0.3l0.4,0.3l0.5,0.3l0.5,0.3l0.5,0.2l0.5,0.2l0.5,0.2l0.5,0.2l0.5,0.2l0.5,0.2l0.5,0.2l0.5,0.1l0.6,0.1l0.5,0.1l0.6,0.1
		l0.6,0.1l0.6,0.1l0.6,0.1l0.6,0.1l0.6,0.1l0.6,0l0.6,0l0.6,0h0.6h0.5l0.5,0l0.5,0l0.5,0l0.5,0l0.5,0l0.5,0l0.5-0.1l0.5-0.1l0.5-0.1
		l0.5-0.1l0.4-0.1l0.4-0.1l0.4-0.1l0.4-0.1l0.4-0.1l0.8-0.3l0.8-0.3l0.7-0.3l0.7-0.3l0.7-0.3l0.7-0.3l0.6-0.4l0.6-0.4l0.6-0.4
		l0.6-0.4l0.5-0.4l0.5-0.4l0.5-0.4l0.5-0.4l0.4-0.4l0.4-0.4l0.4-0.4l0.4-0.4l0.3-0.4l0.3-0.4l0.3-0.4l0.3-0.4l0.3-0.3l0.2-0.4
		l2.3,8.6h14.8v-60.7L201.7,141.8L201.7,141.8z"/>
	<path class="st1" d="M56.2,121.5v20.3h-8.5v13.8h8.5v24.7l0,0.8l0,0.7l0,0.7l0,0.7l0,0.7l0.1,0.7l0.1,0.7l0.1,0.7l0.1,0.7l0.1,0.7
		l0.1,0.6l0.1,0.6l0.1,0.6l0.1,0.6l0.1,0.6l0.2,0.6l0.2,0.6l0.2,0.5l0.2,0.5l0.2,0.5l0.2,0.5l0.2,0.5l0.2,0.5l0.2,0.5l0.2,0.5
		l0.3,0.4l0.3,0.4l0.3,0.4l0.3,0.4l0.3,0.4L61,198l0.3,0.3l0.3,0.3l0.3,0.3l0.3,0.3l0.3,0.3l0.3,0.3l0.3,0.3l0.4,0.3l0.4,0.3
		l0.4,0.3l0.4,0.2l0.4,0.2l0.4,0.2l0.4,0.2l0.4,0.2l0.5,0.2l0.5,0.2l0.5,0.2l0.5,0.2l0.5,0.2l0.5,0.2l0.5,0.2l0.5,0.1l0.5,0.1
		l0.5,0.1l0.5,0.1l0.6,0.1l0.6,0.1l0.6,0.1l0.6,0.1l0.6,0l0.6,0l0.6,0l1,0l0.9,0l0.9,0l0.8-0.1l0.7-0.1l0.7-0.1l0.6-0.1l0.6-0.1
		l0.6-0.1l0.5-0.1l0.5-0.2l0.5-0.2l0.9-0.3l0.9-0.3v-14.1l-0.2,0.1l-0.3,0.1l-0.4,0.1l-0.5,0.1l-0.5,0.1l-0.6,0l-0.6,0l-0.7,0
		l-0.6,0l-0.6,0l-0.5-0.1l-0.5-0.1l-0.5-0.1l-0.5-0.1l-0.4-0.2l-0.4-0.2l-0.4-0.2l-0.4-0.2l-0.3-0.3l-0.3-0.3l-0.3-0.3l-0.3-0.3
		l-0.3-0.3l-0.2-0.4l-0.2-0.4l-0.2-0.4l-0.2-0.4l-0.2-0.4l-0.1-0.5l-0.1-0.5l-0.1-0.5l-0.1-0.5l-0.1-0.5l-0.1-0.6l-0.1-0.6l0-0.6
		l0-0.6l0-0.6l0-0.7v-0.7v-21.5h11.6v-13.8H74.4v-20.3L56.2,121.5L56.2,121.5z"/>
	<path class="st1" d="M194.8,121.4l-11.3,16.4h13l15.9-16.4H194.8z"/>
</g>
</svg>
