                    <!-- Generator: Adobe Illustrator 23.0.0, SVG Export Plug-In . SVG Version: 6.00 Build 0)  -->
                    <svg version="1.1" id="Capa_1" xmlns="http://www.w3.org/2000/svg" xmlns:xlink="http://www.w3.org/1999/xlink" x="0px" y="0px"
                         viewBox="0 0 209.24 194.16" style="enable-background:new 0 0 209.24 194.16;" xml:space="preserve">
                    <style type="text/css">
                        .st0{fill:#202020;}
                        .st1{fill:#333333;}
                        .st2{fill:#FFFFFF;}
                    </style>
                    <g>
                        <path class="st0" d="M171.15,43.39c0-23.9-29.7-43.39-66.34-43.39C68.17,0,38.48,19.49,38.48,43.39c0,0.62-0.01,2.32-0.01,2.54
                            c0,25.36,25.96,45.9,66.34,45.9c40.62,0,66.35-20.53,66.35-45.89C171.15,45.05,171.15,44.54,171.15,43.39z"/>
                        <path class="st1" d="M168.61,43.37c0,22.54-28.56,40.8-63.79,40.8c-35.23,0-63.79-18.27-63.79-40.8
                            c0-22.54,28.56-40.81,63.79-40.81C140.05,2.56,168.61,20.83,168.61,43.37z"/>
                        <g>
                            <path class="st2" d="M83.64,30.49c-0.03,0.06-0.67,0.72-0.26,1.25c1.01,1.29,4.12,2.02,7.26,1.32c1.87-0.42,4.27-2.33,6.6-4.17
                                c2.52-2,5.02-4,7.53-4.8c2.66-0.85,4.36-0.48,5.49-0.14c1.24,0.37,2.69,1.18,5,2.92c4.37,3.28,21.91,18.6,24.95,21.25
                                c2.44-1.1,13.29-5.78,28.04-9.03c-1.28-7.86-6.06-15.06-13.32-20.95c-10.11,4.25-22.46,6.46-34.55,0.56
                                c-0.06-0.03-6.6-3.12-13.05-2.97c-9.59,0.22-13.74,4.37-18.13,8.76L83.64,30.49z"/>
                            <path class="st2" d="M139.5,49.78c-0.21-0.18-20.63-18.06-25.26-21.54c-2.68-2.01-4.17-2.52-5.73-2.72
                                c-0.81-0.11-1.94,0.04-2.73,0.26c-2.15,0.59-4.97,2.47-7.47,4.45c-2.59,2.06-5.03,4-7.29,4.51c-2.89,0.65-6.43-0.12-8.04-1.21
                                c-0.65-0.44-1.11-0.95-1.33-1.46c-0.59-1.38,0.5-2.48,0.68-2.67l5.64-6.1c0.66-0.65,1.32-1.31,1.99-1.95
                                c-1.82,0.24-3.5,0.7-5.14,1.16c-2.04,0.57-4.01,1.12-6,1.12c-0.83,0-5.28-0.73-6.12-0.96c-5.1-1.4-9.58-2.76-16.27-5.88
                                c-8.01,5.97-13.37,13.43-14.92,21.64c1.15,0.3,3.01,0.86,3.79,1.03c18.14,4.03,23.79,8.19,24.81,9.05
                                c1.11-1.23,2.71-2.02,4.5-2.02c2.01,0,3.82,1.01,4.92,2.57c1.04-0.82,2.47-1.52,4.32-1.52c0.84,0,1.71,0.16,2.59,0.46
                                c2.05,0.7,3.1,2.06,3.65,3.3c0.69-0.31,1.53-0.54,2.52-0.54c0.98,0,1.99,0.22,3.02,0.67c3.34,1.44,3.87,4.72,3.56,7.2
                                c0.24-0.03,0.48-0.04,0.72-0.04c3.96,0,7.19,3.23,7.19,7.19c0,1.23-0.31,2.38-0.86,3.4c1.08,0.61,3.83,1.98,6.24,1.67
                                c1.93-0.24,2.66-0.9,2.92-1.27c0.18-0.26,0.37-0.55,0.19-0.77l-5.12-5.69c0,0-0.84-0.8-0.56-1.1c0.29-0.32,0.81,0.14,1.18,0.45
                                c2.6,2.17,5.78,5.46,5.78,5.46c0.05,0.04,0.26,0.45,1.44,0.66c1.01,0.18,2.8,0.08,4.04-0.94c0.31-0.26,0.63-0.58,0.89-0.91
                                c-0.02,0.02-0.04,0.04-0.06,0.05c1.31-1.67-0.15-3.37-0.15-3.37l-5.97-6.71c0,0-0.86-0.79-0.56-1.11
                                c0.26-0.28,0.81,0.14,1.18,0.45c1.89,1.58,4.56,4.26,7.13,6.77c0.5,0.37,2.75,1.76,5.73-0.2c1.81-1.19,2.17-2.64,2.12-3.74
                                c-0.13-1.46-1.26-2.49-1.26-2.49l-8.16-8.21c0,0-0.86-0.74-0.56-1.11c0.25-0.31,0.81,0.14,1.18,0.45c2.6,2.17,9.64,8.63,9.64,8.63
                                c0.1,0.07,2.53,1.8,5.54-0.11c1.07-0.69,1.76-1.72,1.82-2.93C140.97,51.02,139.5,49.78,139.5,49.78z"/>
                            <path class="st2" d="M99.92,60.18c-1.27-0.02-2.65,0.74-2.83,0.63c-0.1-0.07,0.08-0.57,0.2-0.87c0.12-0.29,1.79-5.31-2.27-7.05
                                c-3.11-1.34-5.01,0.17-5.66,0.84c-0.17,0.18-0.25,0.16-0.27-0.06c-0.06-0.9-0.47-3.35-3.15-4.16c-3.83-1.17-6.3,1.5-6.93,2.47
                                c-0.28-2.19-2.13-3.88-4.39-3.88c-2.46,0-4.45,1.99-4.46,4.45c0,2.46,1.99,4.45,4.45,4.45c1.2,0,2.28-0.47,3.08-1.24
                                c0.03,0.02,0.04,0.07,0.02,0.15c-0.19,1.1-0.53,5.1,3.66,6.73c1.68,0.65,3.11,0.17,4.29-0.66c0.35-0.25,0.41-0.14,0.36,0.19
                                c-0.15,1.03,0.04,3.23,3.13,4.48c2.35,0.96,3.74-0.02,4.65-0.86c0.4-0.36,0.5-0.3,0.52,0.26c0.11,2.98,2.59,5.34,5.59,5.34
                                c3.09,0,5.6-2.5,5.6-5.59C105.52,62.69,103.01,60.21,99.92,60.18z"/>
                        </g>
                        <path class="st0" d="M140.29,47.64c-6.29-5.49-20.84-18.14-24.78-21.09c-2.25-1.69-3.79-2.59-5.13-2.99
                            c-0.61-0.18-1.44-0.39-2.52-0.39c-1,0-2.08,0.18-3.2,0.54c-2.55,0.81-5.08,2.82-7.54,4.77L97,28.58c-2.29,1.82-4.65,3.7-6.43,4.09
                            c-0.78,0.18-1.58,0.27-2.38,0.27c-2,0-3.8-0.58-4.47-1.44c-0.11-0.14-0.04-0.37,0.22-0.7l0.03-0.04l5.54-5.97
                            c4.33-4.34,8.43-8.43,17.86-8.65c0.16,0,0.32-0.01,0.47-0.01c5.87,0,11.73,2.63,12.39,2.94c5.5,2.68,11.18,4.05,16.89,4.05
                            c5.95,0,12.09-1.47,18.54-4.44c-0.72-0.61-1.47-1.2-2.24-1.78c-5.67,2.46-11.07,3.7-16.29,3.7c-5.32,0-10.64-1.28-15.81-3.8
                            c-0.27-0.13-6.75-3.18-13.49-3.19c-0.18,0-0.36,0-0.53,0.01c-7.92,0.19-12.38,3-15.38,5.46c-2.92,0.07-5.43,0.77-7.67,1.4
                            c-2,0.56-3.72,1.04-5.41,1.04c-0.69,0-1.94-0.06-2.05-0.07c-1.94-0.06-11.69-2.45-19.45-5.39c-0.79,0.56-1.55,1.14-2.3,1.73
                            c8.1,3.32,17.96,5.89,21.08,6.09c0.87,0.06,1.79,0.15,2.71,0.16c2.06,0,4.11-0.58,6.1-1.13c1.17-0.33,2.47-0.69,3.83-0.95
                            c-0.36,0.36-0.73,0.72-1.09,1.08l-5.62,6.08c-0.44,0.45-1.4,1.64-0.77,3.11c0.25,0.59,0.76,1.16,1.48,1.64
                            c1.34,0.9,3.74,1.51,5.97,1.51c0.84,0,1.65-0.08,2.38-0.25c2.36-0.53,4.83-2.5,7.45-4.58c2.09-1.66,5.05-3.76,7.32-4.38
                            c0.63-0.17,1.41-0.28,2.04-0.28c0.19,0,0.36,0.01,0.53,0.03c1.5,0.19,2.95,0.7,5.54,2.64c4.62,3.47,25.05,21.34,25.25,21.52
                            c0.01,0.01,1.32,1.14,1.23,3c-0.05,1.04-0.63,1.97-1.63,2.61c-0.87,0.55-1.77,0.83-2.68,0.83c-1.37,0-2.31-0.64-2.37-0.69
                            c-0.07-0.06-7.08-6.48-9.65-8.64c-0.41-0.34-0.81-0.65-1.21-0.65c-0.22,0-0.41,0.09-0.54,0.25c-0.41,0.5,0.05,1.19,0.58,1.65
                            l8.18,8.22c0.01,0.01,1.02,0.95,1.13,2.21c0.06,1.36-0.59,2.5-1.94,3.39c-0.96,0.64-1.94,0.96-2.9,0.96
                            c-1.26,0-2.14-0.57-2.33-0.71l-1.17-1.16c-2.14-2.11-4.36-4.29-5.98-5.64c-0.39-0.33-0.82-0.63-1.22-0.63
                            c-0.2,0-0.38,0.07-0.51,0.22c-0.18,0.21-0.31,0.57,0.15,1.19c0.19,0.25,0.41,0.46,0.41,0.46l5.97,6.7
                            c0.05,0.06,1.23,1.46,0.13,2.86l-0.21,0.27c-0.18,0.2-0.37,0.38-0.56,0.54c-1.02,0.83-2.38,0.92-2.92,0.92
                            c-0.29,0-0.57-0.02-0.81-0.07c-0.59-0.11-0.99-0.27-1.18-0.5l-0.07-0.08c-0.33-0.34-3.33-3.41-5.82-5.48
                            c-0.33-0.28-0.74-0.62-1.16-0.62c-0.21,0-0.4,0.08-0.54,0.24c-0.49,0.54,0.25,1.35,0.56,1.64l5.09,5.61
                            c-0.01,0.05-0.07,0.17-0.19,0.34c-0.18,0.25-0.8,0.87-2.64,1.1c-0.22,0.03-0.45,0.04-0.68,0.04c-1.9,0-3.93-0.92-4.98-1.48
                            c0.48-1.01,0.72-2.11,0.72-3.23c0-4.19-3.4-7.6-7.59-7.6c-0.09,0-0.19,0-0.27,0.01c0.14-1.91-0.13-5.53-3.85-7.13
                            c-1.07-0.46-2.14-0.7-3.17-0.7c-0.81,0-1.59,0.14-2.33,0.42c-0.77-1.5-2.05-2.59-3.72-3.16c-0.92-0.32-1.84-0.48-2.72-0.48
                            c-1.55,0-2.97,0.46-4.24,1.36C78.4,47,76.56,46.1,74.62,46.1c-1.7,0-3.33,0.68-4.53,1.88c-1.58-1.21-7.87-5.2-24.69-9.02
                            c-0.82-0.19-2.68-0.72-3.83-1.06c-0.19,0.91-0.33,1.83-0.43,2.76c0,0,3.1,0.74,3.71,0.88c17.18,3.82,22.86,7.78,23.82,8.53
                            c-0.33,0.78-0.49,1.62-0.5,2.47c0,3.55,2.88,6.44,6.44,6.44c0.4,0,0.79-0.04,1.18-0.11c0.54,2.61,2.24,4.59,4.86,5.61
                            c0.76,0.29,1.54,0.44,2.29,0.44c0.49,0,0.98-0.06,1.47-0.18c0.48,1.22,1.57,2.75,3.99,3.74c0.85,0.34,1.7,0.52,2.53,0.52
                            c0.68,0,1.34-0.12,1.97-0.35c1.16,2.83,3.93,4.71,7.02,4.71c2.04,0,4.01-0.83,5.44-2.3c1.23,0.68,3.81,1.91,6.43,1.92
                            c0.34,0,0.66-0.02,0.97-0.06c2.59-0.33,3.8-1.34,4.36-2.13c0.1-0.14,0.19-0.28,0.27-0.44c0.61,0.18,1.29,0.32,2.06,0.32
                            c1.42,0,2.78-0.48,4.15-1.48c1.35-0.97,2.31-2.37,2.45-3.56c0-0.02,0-0.03,0.01-0.05c0.46,0.09,0.92,0.14,1.39,0.14
                            c1.46,0,2.9-0.46,4.27-1.35c2.65-1.74,3.11-4,3.06-5.49c0.46,0.1,0.94,0.15,1.41,0.15c1.37,0,2.72-0.41,4-1.23
                            c1.64-1.05,2.63-2.65,2.78-4.52c0.1-1.27-0.21-2.55-0.88-3.65c4.43-1.91,14.57-5.61,26.5-8.3c-0.07-0.93-0.21-1.84-0.37-2.75
                            C153.76,41.78,142.99,46.44,140.29,47.64z M99.92,70.98c-2.8,0-5.08-2.18-5.19-4.96c-0.01-0.24-0.03-0.87-0.57-0.87
                            c-0.22,0-0.41,0.13-0.63,0.33c-0.62,0.57-1.4,1.15-2.55,1.15c-0.52,0-1.08-0.12-1.68-0.37c-2.96-1.2-3-3.23-2.88-4.05
                            c0.03-0.22,0.04-0.45-0.11-0.62l-0.18-0.16h-0.18c-0.15,0-0.31,0.06-0.51,0.21c-0.86,0.6-1.68,0.89-2.51,0.89
                            c-0.46,0-0.93-0.09-1.4-0.27c-3.9-1.52-3.59-5.2-3.4-6.3c0.03-0.22-0.03-0.4-0.17-0.51l-0.28-0.23l-0.26,0.25
                            c-0.76,0.73-1.75,1.13-2.8,1.13c-2.23,0-4.05-1.82-4.05-4.05c0-2.23,1.82-4.05,4.05-4.04c2.02,0,3.74,1.52,3.99,3.53l0.14,1.09
                            l0.6-0.92c0.07-0.11,1.7-2.58,4.71-2.58c0.57,0,1.16,0.09,1.76,0.28c2.4,0.73,2.8,2.91,2.87,3.81c0.04,0.53,0.42,0.55,0.49,0.55
                            c0.21,0,0.36-0.13,0.47-0.24c0.45-0.47,1.44-1.26,2.98-1.26c0.71,0,1.46,0.17,2.23,0.5c3.81,1.63,2.08,6.48,2.06,6.53
                            c-0.33,0.8-0.34,1.16-0.03,1.36l0.15,0.07h0.11c0.17,0,0.39-0.08,0.74-0.2c0.52-0.18,1.3-0.45,2.03-0.45h0
                            c2.87,0.03,5.2,2.37,5.2,5.2C105.12,68.65,102.78,70.98,99.92,70.98z"/>
                        <path class="st0" d="M205.65,117.74c-2.39-3-6.03-4.5-10.91-4.5c-4.87,0-8.51,1.5-10.9,4.5c-2.4,3-3.59,6.54-3.59,10.63
                            c0,4.16,1.2,7.72,3.59,10.68c2.39,2.95,6.03,4.43,10.9,4.43c4.88,0,8.51-1.48,10.91-4.43c2.4-2.96,3.59-6.52,3.59-10.68
                            C209.24,124.29,208.05,120.74,205.65,117.74z M199.72,134.95c-1.16,1.54-2.82,2.31-5,2.31c-2.17,0-3.84-0.77-5.01-2.31
                            c-1.17-1.54-1.75-3.74-1.75-6.58c0-2.84,0.58-5.03,1.75-6.56c1.17-1.53,2.84-2.3,5.01-2.3c2.17,0,3.84,0.77,5,2.3
                            c1.16,1.53,1.74,3.72,1.74,6.56C201.46,131.22,200.88,133.41,199.72,134.95z"/>
                        <path class="st0" d="M144.45,115.23c-2.43-1.23-5.21-1.85-8.33-1.85c-4.81,0-8.2,1.25-10.18,3.76c-1.24,1.6-1.94,3.65-2.1,6.14
                            h7.18c0.18-1.1,0.53-1.97,1.06-2.61c0.74-0.87,2-1.3,3.78-1.3c1.59,0,2.79,0.22,3.62,0.67c0.82,0.44,1.23,1.25,1.23,2.41
                            c0,0.96-0.53,1.66-1.6,2.12c-0.6,0.26-1.59,0.48-2.98,0.65l-2.55,0.31c-2.89,0.37-5.09,0.98-6.58,1.83
                            c-2.72,1.57-4.08,4.1-4.08,7.6c0,2.69,0.84,4.78,2.54,6.25c1.68,1.47,3.83,2.09,6.42,2.21c16.24,0.72,16.06-8.56,16.21-10.49
                            v-10.69C148.1,118.81,146.88,116.47,144.45,115.23z M140.68,131.45c-0.05,2.49-0.76,4.2-2.13,5.14c-1.37,0.94-2.87,1.41-4.49,1.41
                            c-1.03,0-1.9-0.29-2.62-0.85c-0.71-0.57-1.07-1.49-1.07-2.76c0-1.43,0.58-2.48,1.76-3.16c0.7-0.4,1.83-0.74,3.42-1.01l1.7-0.32
                            c0.84-0.16,1.51-0.33,1.99-0.51c0.49-0.18,0.97-0.42,1.44-0.71V131.45z"/>
                        <path class="st0" d="M107.42,119.75c1.86,0,3.22,0.57,4.1,1.72c0.6,0.85,0.98,1.8,1.13,2.87h8.01c-0.44-4.04-1.86-6.86-4.24-8.46
                            c-2.39-1.59-5.46-2.39-9.21-2.39c-4.41,0-7.88,1.36-10.38,4.06c-2.51,2.71-3.76,6.5-3.76,11.36c0,4.31,1.14,7.82,3.41,10.53
                            s5.81,4.06,10.63,4.06c4.82,0,8.46-1.62,10.91-4.87c1.54-2.01,2.4-4.15,2.58-6.4h-7.99c-0.16,1.49-0.63,2.71-1.4,3.64
                            c-0.77,0.93-2.07,1.4-3.9,1.4c-2.59,0-4.35-1.18-5.28-3.54c-0.51-1.26-0.77-2.93-0.77-5.01c0-2.18,0.26-3.93,0.77-5.25
                            C102.97,120.99,104.78,119.75,107.42,119.75z"/>
                        <path class="st0" d="M90.91,113.48c-16.46,0-15.48,14.57-15.48,14.57v14.8h7.47v-13.88c0-2.27,0.29-3.96,0.86-5.05
                            c1.03-1.94,3.03-2.91,6.01-2.91c0.23,0,0.52,0.01,0.89,0.03s0.78,0.05,1.25,0.11v-7.6c-0.33-0.02-0.55-0.03-0.64-0.04
                            C91.16,113.48,91.04,113.48,90.91,113.48z"/>
                        <path class="st0" d="M63.47,135.11c-0.31,0.45-0.65,0.83-1.02,1.13c-1.06,0.87-2.49,1.13-4.18,1.13c-1.6,0-2.84-0.24-3.98-0.96
                            c-1.86-1.14-2.91-3.08-3.02-5.93h20.67c0.03-2.45-0.05-4.32-0.25-5.63c-0.34-2.22-1.1-4.18-2.26-5.87c-1.29-1.91-2.93-3.31-4.9-4.2
                            c-1.98-0.88-4.2-1.33-6.67-1.33c-4.16,0-7.54,1.31-10.15,3.93c-2.6,2.63-3.91,6.39-3.91,11.3c0,5.25,1.45,9.03,4.33,11.36
                            c2.88,2.33,6.22,3.49,9.99,3.49c4.57,0,8.13-1.38,10.67-4.14c1.37-1.45,2.23-2.89,2.59-4.31H63.47z M53.43,121.21
                            c1.05-1.08,2.53-1.62,4.43-1.62c1.75,0,3.22,0.51,4.4,1.53c1.18,1.02,1.84,2.51,1.97,4.48H51.46
                            C51.72,123.75,52.39,122.29,53.43,121.21z"/>
                        <g>
                            <path class="st0" d="M40.8,142.84h-6.82v-17.18c0-1.57-0.52-5.3-5.02-5.3c-3,0-5.17,2.16-5.17,5.3v17.18h-6.83v-17.18
                                c0-1.57-0.46-5.3-4.96-5.3c-3.05,0-5.17,2.16-5.17,5.3v17.18H0v-17.01c0-7.09,4.71-12.46,12-12.46c3.62,0,6.57,1.52,8.48,3.96
                                c2.01-2.44,5.01-3.96,8.48-3.96c7.45,0,11.84,5.15,11.84,12.46V142.84z"/>
                        </g>
                        <path class="st0" d="M178.03,104.5c0,0-7.52-0.8-7.52,5.24l-0.01,8c-0.83-1.34-1.92-2.38-3.25-3.13c-1.33-0.75-2.86-1.13-4.58-1.13
                            c-3.73,0-6.71,1.39-8.94,4.16c-2.23,2.78-3.34,6.78-3.34,11.62c0,4.2,1.13,7.64,3.4,10.32c2.26,2.68,6.71,3.85,10.65,3.85
                            c13.75,0,13.59-11.79,13.59-11.79L178.03,104.5z M169.07,135.01c-1.09,1.56-2.69,2.34-4.79,2.34c-2.1,0-3.67-0.79-4.7-2.36
                            c-1.03-1.57-1.55-3.86-1.55-6.48c0-2.43,0.5-4.46,1.52-6.1c1.01-1.64,2.6-2.46,4.78-2.46c1.42,0,2.67,0.45,3.75,1.35
                            c1.75,1.49,2.63,4.17,2.63,7.64C170.71,131.43,170.16,133.45,169.07,135.01z"/>
                        <path class="st1" d="M54.35,188c0,1.01-0.37,1.88-1.11,2.6c-0.73,0.72-1.61,1.08-2.64,1.08h-3.74v-26c0-5.05,1.71-8.22,4.51-10.36
                            c1.85-1.41,4.61-2.76,9.79-2.76c3.49,0,7.58,1.36,9.79,4.05c2.48,3.03,3.51,6.41,3.51,10.82c0,4.56-1.1,8.24-3.29,11.07
                            c-2.2,2.75-5.02,4.12-8.47,4.12c-1.83,0-3.44-0.33-4.84-0.97c-1.47-0.73-2.64-1.85-3.52-3.37V188z M66.89,167.76
                            c0-2.82-0.55-4.99-1.65-6.51c-1.1-1.51-2.67-2.28-4.73-2.28c-1.98,0-3.52,0.77-4.62,2.28c-1.02,1.38-1.53,3.55-1.53,6.51
                            c0,2.75,0.55,4.81,1.65,6.19c1.1,1.52,2.68,2.28,4.73,2.28c1.9,0,3.41-0.76,4.51-2.28C66.34,172.42,66.89,170.37,66.89,167.76"/>
                        <path class="st1" d="M124.04,180.23v-1.84c-1.29,2.03-3.04,3.28-5.24,3.79c-2.2,0.5-4.38,0.32-6.53-0.55
                            c-2.17-0.86-4.02-2.47-5.57-4.82c-1.54-2.36-2.32-5.45-2.32-9.28c0-4.48,1.03-8.11,3.08-10.89c2.05-2.78,5.35-4.05,9.89-4.18
                            c4.47-0.12,7.07,0.89,9.61,2.82c2.78,2.11,4.43,5.35,4.43,10.41v15.29c0.01,4.86-3.38,13.88-14.04,13.12
                            c-6.6-0.48-10.27-3.19-12.31-9.33h7.88c0.58,1.01,1.46,1.79,2.65,2.33c1.18,0.55,2.38,0.69,3.56,0.44
                            c1.19-0.25,2.27-0.96,3.25-2.11C123.34,184.28,123.9,182.54,124.04,180.23 M111.73,167.76c0,4.98,1.44,7.75,4.32,8.29
                            c2.88,0.53,5-0.13,6.37-2.01c0.65-0.79,1.11-2.04,1.4-3.74c0.29-1.7,0.31-3.38,0.05-5.04c-0.25-1.67-0.84-3.15-1.78-4.45
                            c-0.93-1.3-2.3-1.95-4.1-1.95c-2.45,0-4.1,0.91-4.97,2.71C112.16,163.38,111.73,165.44,111.73,167.76"/>
                        <path class="st1" d="M97.98,154.53c-2.43-1.23-5.22-1.86-8.35-1.86c-4.82,0-8.21,1.26-10.19,3.77c-1.24,1.61-1.94,3.65-2.1,6.15
                            h7.2c0.18-1.1,0.53-1.97,1.06-2.61c0.74-0.87,2-1.31,3.79-1.31c1.6,0,2.8,0.22,3.62,0.67c0.82,0.44,1.23,1.25,1.23,2.42
                            c0,0.96-0.53,1.66-1.61,2.12c-0.59,0.26-1.59,0.48-2.98,0.65l-2.55,0.31c-2.9,0.37-5.1,0.98-6.58,1.83
                            c-2.73,1.57-4.08,4.11-4.08,7.61c0,2.7,0.84,4.79,2.54,6.26c1.69,1.47,3.84,2.09,6.43,2.21c16.27,0.73,16.08-8.57,16.23-10.51
                            v-10.7C101.63,158.11,100.42,155.77,97.98,154.53 M94.2,170.78c-0.05,2.49-0.76,4.21-2.13,5.15c-1.37,0.94-2.87,1.41-4.5,1.41
                            c-1.03,0-1.9-0.29-2.62-0.85c-0.72-0.57-1.08-1.49-1.08-2.76c0-1.43,0.59-2.48,1.76-3.16c0.7-0.4,1.84-0.74,3.43-1.02l1.7-0.31
                            c0.85-0.16,1.51-0.33,2-0.52c0.49-0.18,0.97-0.42,1.44-0.72V170.78z"/>
                        <path class="st1" d="M159.68,156.89c-2.4-3.01-6.04-4.51-10.93-4.51c-4.88,0-8.52,1.5-10.92,4.51c-2.4,3-3.6,6.55-3.6,10.65
                            c0,4.17,1.2,7.73,3.6,10.7c2.4,2.95,6.04,4.44,10.92,4.44c4.88,0,8.53-1.49,10.93-4.44c2.4-2.97,3.59-6.53,3.59-10.7
                            C163.28,163.44,162.08,159.89,159.68,156.89 M153.74,174.12c-1.16,1.55-2.83,2.32-5,2.32c-2.17,0-3.85-0.77-5.02-2.32
                            c-1.18-1.54-1.76-3.74-1.76-6.58c0-2.84,0.59-5.04,1.76-6.57c1.17-1.54,2.85-2.3,5.02-2.3c2.17,0,3.84,0.77,5,2.3
                            c1.16,1.54,1.75,3.73,1.75,6.57C155.48,170.39,154.9,172.58,153.74,174.12"/>
                    </g>
                    </svg>
