<!-- Generator: Adobe Illustrator 23.0.0, SVG Export Plug-In . SVG Version: 6.00 Build 0)  -->
<svg version="1.1"
	 id="svg4" inkscape:version="0.92.2 (5c3e80d, 2017-08-06)" sodipodi:docname="nubank-logo.svg" xmlns:cc="http://creativecommons.org/ns#" xmlns:dc="http://purl.org/dc/elements/1.1/" xmlns:inkscape="http://www.inkscape.org/namespaces/inkscape" xmlns:rdf="http://www.w3.org/1999/02/22-rdf-syntax-ns#" xmlns:sodipodi="http://sodipodi.sourceforge.net/DTD/sodipodi-0.dtd" xmlns:svg="http://www.w3.org/2000/svg"
	 xmlns="http://www.w3.org/2000/svg" xmlns:xlink="http://www.w3.org/1999/xlink" x="0px" y="0px" viewBox="0 0 3171.39 1346.18"
	 style="enable-background:new 0 0 3171.39 1346.18;" xml:space="preserve">
<style type="text/css">
	.st0{fill:#212121;}
</style>
<path id="path2-08" inkscape:connector-curvature="0" inkscape:export-filename="G:\Users\suitedoalex\sites\nubank-logo-10.png" inkscape:export-xdpi="21.309616" inkscape:export-ydpi="21.309616" class="st0" d="
	M1708.65,944.13c0,54.65-65.19,121.8-118.22,121.8h-48.27c0.05-334.38,0.05-709.26,0-775.8c-0.08-8.28,6.56-15.05,14.84-15.13
	c0.01,0,0.02,0,0.03,0h136.69c8.22,0,14.94,6.89,14.94,15.26V944.13z M1485.89,1183.27c0,34.58-16.92,92.52-130.29,92.52
	c-219.69,0-354.54-172.11-354.54-295.55c0,0-0.25-399.13-0.25-689.98c-0.09-8.26,6.53-15.04,14.79-15.13c0.03,0,0.07,0,0.1,0h136.86
	c8.22,0,14.96,6.84,14.96,15.26v641.32c0,105.96,83.86,191.9,187.24,191.9h131.2L1485.89,1183.27z M1704.08,217.48h-157.47
	c-33.48,0-60.75,27.96-60.75,62.27v786.25h-131.2c-72.38,0-131.05-60.14-131.05-134.31V279.76c0-34.39-27.23-62.3-60.78-62.3H1005.3
	c-33.55,0-60.78,27.91-60.83,62.3c-0.07,284.27,0.25,700.5,0.25,700.5c0.03,218.78,239.29,353.12,410.83,353.12
	c115.06,0,186.53-57.64,186.53-150.5v-59.28h48.32c84.77,0,174.44-92.22,174.44-179.47V279.76c0.07-34.39-27.15-62.3-60.75-62.3
	V217.48z M773.42,1052.02c0.08,8.26-6.55,15.03-14.81,15.11c-0.02,0-0.05,0-0.07,0H621.67c-8.32-0.11-15-6.91-14.96-15.23V410.59
	c0-105.96-83.88-191.9-187.24-191.9h-131.2v-59.67c0-34.51,16.92-92.52,130.29-92.52c219.69,0,354.59,172.11,354.59,295.55
	c0,0,0.25,401.07,0.25,689.98L773.42,1052.02z M80.38,1067.26c-8.33-0.12-14.98-6.95-14.89-15.28V398.22
	c0-54.65,65.19-121.9,118.2-121.9H232c-0.07,478.85-0.07,723.87,0,775.63c0.08,8.33-6.59,15.15-14.91,15.26H80.4L80.38,1067.26z
	 M829.32,362.05C829.34,143.24,590.08,8.9,418.56,8.9C303.48,8.9,232,66.54,232,159.4v59.28h-48.29
	c-84.79,0-174.46,92.22-174.46,179.47v664.37c0,34.39,27.23,62.3,60.75,62.3h157.44c0.98,0,1.81-0.27,2.8-0.27
	c32.18-1.55,57.96-28.65,57.96-62.03V276.27h131.22c72.36,0,131.05,60.14,131.05,134.31v651.94c0,34.39,27.23,62.3,60.75,62.3
	h157.56c33.55,0,60.75-27.84,60.75-62.3c0.12-289.57-0.2-700.5-0.2-700.5L829.32,362.05z M3098.81,1066.03
	c-1.17,0.01-2.28-0.54-2.99-1.47l-135.91-180.67h-1.3v178.31c0.04,2.11-1.64,3.86-3.75,3.9c-0.01,0-0.02,0-0.03,0h-48.05
	c-2.11-0.03-3.8-1.76-3.78-3.87c0,0,0,0,0,0V549.8c0-2.16,1.69-3.9,3.78-3.9h48.05c2.08,0,3.78,1.74,3.78,3.9v326.78h1.3
	l127.62-165.44c1.04-1.4,2.69-2.22,4.44-2.21h55.92c1.64,0,2.48,1.94,1.45,3.14l-137.01,166.44l149.98,184.35
	c0.68,0.81,0.57,2.02-0.24,2.69c-0.33,0.28-0.75,0.43-1.18,0.44h-62.08L3098.81,1066.03z M2766.58,1066.03
	c-2.11-0.03-3.8-1.76-3.78-3.87c0,0,0,0,0,0V819.53c0-53.64-21.34-80.2-78.19-80.2c-22.83,0-41.57,3.61-59.01,10.91
	c-1.46,0.64-2.4,2.08-2.4,3.68v308.16c0.03,2.11-1.66,3.85-3.78,3.88c-0.01,0-0.02,0-0.02,0h-49.32c-2.12-0.03-3.82-1.76-3.8-3.88
	V731.23c-0.02-2.28,1.28-4.36,3.34-5.35c31.91-14.4,73.12-23.62,114.94-23.62c93.74,0,135.12,41.75,135.12,117.27v242.62
	c0,2.13-1.72,3.88-3.8,3.88L2766.58,1066.03z M2430.07,864.61c-88.57,10.57-140.91,35.81-140.91,98.75
	c0,48.37,29.09,75.52,83.39,75.52c20.9,0,41.79-4.22,55.48-10.84c1.31-0.69,2.11-2.05,2.08-3.53L2430.07,864.61z M2367.3,1072.65
	c-83.39,0-132.47-37.13-132.47-107.97c0-86.14,82.76-119.25,195.21-130.49v-21.88c0-49.05-25.85-70.91-74.34-70.91
	c-29.63,0-61.76,8.83-85.5,21.53c-0.87,0.47-1.96,0.15-2.43-0.72c-0.05-0.09-0.09-0.19-0.12-0.28l-11.55-30.44
	c-0.72-1.88,0.07-4,1.84-4.95c32.07-15.64,67.23-23.94,102.92-24.28c75.64,0,122.2,36.45,122.2,115.94v225.63
	c0,2.21-1.13,4.27-3.09,5.2C2452.24,1063.43,2412.16,1072.65,2367.3,1072.65L2367.3,1072.65z M2038.39,738.71
	c-20.7,0-39.44,5.27-55.6,13.24v271.64c0,1.62,0.83,3.02,2.28,3.61c12.78,5.35,30.41,8.29,46.85,8.29
	c71.74,0,100.19-62.27,100.19-151.7c0-89.43-33.6-145.1-93.72-145.1L2038.39,738.71z M2030.05,1072.63
	c-39.76,0-77.11-10.38-100.61-23.55c-1.82-1.06-2.92-3.04-2.87-5.15v-494.2c0-2.13,1.72-3.88,3.73-3.88h48.76
	c2.08,0,3.78,1.72,3.78,3.88v169.73c20.04-10.6,43.93-15.94,69.83-15.94c81.48,0,136.42,68.92,136.42,176.84
	c-0.05,115.43-55.01,192.29-159.06,192.29L2030.05,1072.63z"/>
</svg>
