<!-- Generator: Adobe Illustrator 23.0.0, SVG Export Plug-In . SVG Version: 6.00 Build 0)  -->
<svg version="1.1"
	 id="svg" inkscape:version="0.92.2 (5c3e80d, 2017-08-06)" sodipodi:docname="picpay-logo.svg" xmlns:cc="http://creativecommons.org/ns#" xmlns:dc="http://purl.org/dc/elements/1.1/" xmlns:inkscape="http://www.inkscape.org/namespaces/inkscape" xmlns:rdf="http://www.w3.org/1999/02/22-rdf-syntax-ns#" xmlns:sodipodi="http://sodipodi.sourceforge.net/DTD/sodipodi-0.dtd" xmlns:svg="http://www.w3.org/2000/svg"
	 xmlns="http://www.w3.org/2000/svg" xmlns:xlink="http://www.w3.org/1999/xlink" x="0px" y="0px" viewBox="0 0 124 40"
	 style="enable-background:new 0 0 124 40;" xml:space="preserve">
<style type="text/css">
	.st0{fill:#212121;}
</style>
<sodipodi:namedview  bordercolor="#666666" borderopacity="1" fit-margin-bottom="0" fit-margin-left="0" fit-margin-right="0" fit-margin-top="0" gridtolerance="10" guidetolerance="10" id="namedview5" inkscape:current-layer="svg" inkscape:cx="156.89073" inkscape:cy="159.88914" inkscape:pageopacity="0" inkscape:pageshadow="2" inkscape:window-height="837" inkscape:window-maximized="1" inkscape:window-width="1600" inkscape:window-x="-8" inkscape:window-y="-8" inkscape:zoom="1.737619" objecttolerance="10" pagecolor="#ffffff" showgrid="false">
	</sodipodi:namedview>
<g>
	
		<path id="path2" inkscape:connector-curvature="0" inkscape:export-filename="C:\Users\suitedoalex\sites\picpay-logo-14.png" inkscape:export-xdpi="38.709679" inkscape:export-ydpi="38.709679" class="st0" d="
		M25.5,32.3h5.8V15.4h-5.8V32.3z M33.3,3.9h-3.9v3.9h3.9V3.9z M11.4,5.8H5.8v4.9H11c3.3,0,5.2,1.6,5.2,4.6S14.3,20,11,20H5.8v-9.2H0
		v21.5h5.8v-7.4h5.5c6.7,0,10.6-3.6,10.6-9.8C21.9,9.3,18.1,5.8,11.4,5.8z M37.2,0H25.5v11.7h11.7V0z M35.3,9.7h-7.8V1.9h7.8V9.7z
		 M69.3,5.8H64v4.9h5c3.3,0,5.2,1.6,5.2,4.6S72.3,20,69,20h-5v-9.2h-5.8v21.5H64v-7.4h5.3c6.7,0,10.6-3.6,10.6-9.8
		C79.9,9.3,76,5.8,69.3,5.8z M118,12l-5,12.6L108,12h-6l8,20.3l-3.1,7.7h6.1l11-28L118,12z M92,11.9c-3.5,0-6.2,0.8-9.2,2.3l1.8,4
		c2.1-1.2,4.2-1.8,6.1-1.8c2.8,0,4.2,1.2,4.2,3.4v0.4h-5.6c-5,0-7.7,2.3-7.7,6.1c0,3.7,2.6,6.3,7,6.3c2.8,0,4.8-1,6.4-2.7v2.2h5.7
		V18.9C100.5,14.6,97.4,11.9,92,11.9z M95.4,25.5c-0.6,1.7-2.3,3.1-4.7,3.1c-2,0-3.2-1-3.2-2.6s1.1-2.3,3.3-2.3h4.6L95.4,25.5z
		 M46.1,27.9c-2.8,0-4.8-2.2-4.8-5.5c0-3.2,2-5.4,4.8-5.4c2,0,3.5,0.8,4.6,2.2l3.9-2.8c-1.8-2.7-4.9-4.3-8.8-4.3
		c-6.1-0.1-10.3,4.1-10.3,10.3s4.2,10.3,10.3,10.3c4.2,0,7.3-1.7,9-4.5l-4-2.7C49.8,27.1,48.2,27.9,46.1,27.9z"/>
</g>
</svg>
