                    <!-- Generator: Adobe Illustrator 23.0.0, SVG Export Plug-In . SVG Version: 6.00 Build 0)  -->
                    <svg version="1.1" id="Camada_1" xmlns="http://www.w3.org/2000/svg" xmlns:xlink="http://www.w3.org/1999/xlink" x="0px" y="0px"
                         viewBox="0 0 919.53 230.47" style="enable-background:new 0 0 919.53 230.47;" xml:space="preserve">
                    <style type="text/css">
                        .st0{fill-rule:evenodd;clip-rule:evenodd;fill:#0F0F0F;}
                        .st1{fill-rule:evenodd;clip-rule:evenodd;fill:#212121;}
                    </style>
                    <g>
                        <path class="st0" d="M11.69,153.33c13.04-39.61,25.46-79.81,34.83-121.27c7.31,0,15.66,0.18,22.97,0.18l-2.76,15.65
                            c18.57-12.04,30.79-15.17,42.96-14.17c44.01,3.6,20.35,61.42-2.91,75.32c-13.64,8.16-32.14,11.8-57.67,8.17
                            c-3.01,12.04-6.02,24.08-9.03,36.12C30.61,153.33,21.15,153.33,11.69,153.33L11.69,153.33z M98.61,89.37
                            c13.28-11.13,13.14-31.34,4.02-37.14c-9.12-5.8-29.73-1.17-36.45,15.43c-6.71,16.6-7.26,26.72-10.93,35.76
                            C62.93,102.85,85.33,100.5,98.61,89.37L98.61,89.37z"/>
                        <path class="st0" d="M226.86,119.37c-8.28,0-15.52,0.17-23.8,0.17l1.54-17.94c-17.02,16.08-44.6,26.71-57.26,11.56
                            c-17.33-23.68-0.92-54.48,18.62-67.14c21.69-14.05,50.48-13.32,79.17-13.93C234.86,60.64,227.96,89.91,226.86,119.37L226.86,119.37
                            z M177.26,61.82c-11.55,11.13-11.43,31.34-3.49,37.14c7.93,5.8,25.87,1.17,31.71-15.43c5.84-16.6,6.32-26.72,9.51-35.76
                            C208.3,48.34,188.81,50.69,177.26,61.82L177.26,61.82z"/>
                        <path class="st0" d="M236.29,154l4.16-22.14c18.5,5.99,34.55,8.87,46.62,2.82c9.39-4.71,16.36-14.82,20.19-33.07
                            c-17.02,16.08-44.61,26.71-57.26,11.56c-17.34-23.68-0.92-54.48,18.62-67.14c21.69-14.05,50.48-13.32,79.17-13.93
                            c-8.89,24.69-9.05,63.44-20.85,91.01c-6.23,14.56-16.69,23.9-29.22,29.25C279.41,160.17,256.68,159.46,236.29,154L236.29,154z
                             M279.91,61.82c-11.56,11.13-11.43,31.34-3.49,37.14c7.93,5.8,25.87,1.17,31.71-15.43c5.84-16.6,6.32-26.72,9.51-35.76
                            C310.95,48.34,291.47,50.69,279.91,61.82L279.91,61.82z"/>
                        <path class="st1" d="M520.54,154l4.16-22.14c18.49,5.99,34.55,8.87,46.62,2.82c9.38-4.71,16.36-14.82,20.18-33.07
                            c-17.01,16.08-44.6,26.71-57.25,11.56c-17.34-23.68-0.92-54.48,18.62-67.14c21.68-14.05,50.48-13.32,79.18-13.93
                            c-8.89,24.69-9.05,63.44-20.85,91.01c-6.23,14.56-16.69,23.9-29.21,29.25C563.66,160.17,540.93,159.46,520.54,154L520.54,154z
                             M840.7,69.16c-8.16,14.58-7.13,30.05,2.29,34.54c9.42,4.49,23.68-3.69,31.84-18.28c8.16-14.58,7.14-30.05-2.29-34.54
                            C863.12,46.39,848.86,54.57,840.7,69.16L840.7,69.16z M833.43,43.19c-25.27,16.93-35.4,45.47-22.62,63.73
                            c12.77,18.26,43.62,19.34,68.89,2.41c25.27-16.93,35.4-45.47,22.63-63.73C889.54,27.34,858.7,26.26,833.43,43.19L833.43,43.19z
                             M731.46,116.56c11.08-28.14,18.53-64.05,24.11-84.05h19.98l-0.69,17.91c8.73-12.06,24.57-18.72,40.66-17.91l-7.58,22.74
                            c-19.99-2.62-34.07,13.37-41.86,39.8c-1.98,6.73-3.57,14.14-4.72,22.09L731.46,116.56L731.46,116.56z M650.85,31.82
                            c8.26,0.23,16.54,0.46,24.8,0.69c-4.37,18.37-11.49,36.05-15.84,54.43c-6.46,22.35,20.19,20.03,31.69,6.2
                            c10.24-18,14.82-39.61,21.36-61.32c8.26,0,16.53,0,24.8,0c-9.36,28.71-17.52,57.41-21.36,86.12c-7.35-0.46-16.08-0.92-23.42-1.38
                            c0.23-4.6,0.45-9.19,0.69-13.78c-24.85,22.83-65.75,28.86-60.63-9.64C635.88,72.69,644.17,52.26,650.85,31.82L650.85,31.82z
                             M509.61,99.34c-0.69,5.74-2.76,11.48-3.44,17.22c-26.75,3.67-55.46,9.87-70.28-11.02c-15.33-29.57,6.78-56.66,26.18-66.83
                            c34.05-15.27,57.7-7.5,62.7,7.58c10.09,26.44-21.12,43.89-66.14,38.58C453.93,107.86,477.42,107.51,509.61,99.34L509.61,99.34z
                             M462.94,68.68c4.15-9.2,11.19-18.5,25.49-20.33c11.26-1.09,12.46,10.77,5.84,15.34C482.26,68.87,480.92,61.77,462.94,68.68
                            L462.94,68.68z M352.19,97.62c-2.76,5.97-5.86,12.29-8.61,18.25c33.65,7.32,59.42,2.91,69.58-7.92c9.93-12.24,8.26-26.1-8.96-36.18
                            c-3.67-2.55-14.05-7.69-13.78-13.78c0.49-13.84,21.54-10.55,34.46-6.55L429,32.5c-9.03-2.1-20.49-2.72-29.71-1.82
                            c-11.21,1.1-23.28,5.95-32.64,15.25c-7.27,7.55-8.76,17.72-6.1,23.9c3.2,7.42,13.56,10.54,18.84,13.64
                            c8.84,4.12,14.11,7.23,12.61,13.5c-1.26,5.26-7.67,9.56-19.13,7.52C365.75,103.22,357.43,100.68,352.19,97.62L352.19,97.62z
                             M564.16,61.82c-11.55,11.13-11.43,31.34-3.5,37.14c7.94,5.8,25.87,1.17,31.72-15.43c5.84-16.6,6.31-26.72,9.51-35.76
                            C595.2,48.34,575.72,50.69,564.16,61.82L564.16,61.82z"/>
                        <path class="st0" d="M827.73,139.91c-4.31,0-8.29,0.69-12.07,2.21c-3.74,1.53-7.03,3.62-9.83,6.46c-2.82,2.82-5.04,5.98-6.46,9.61
                            c-1.52,3.67-2.2,7.65-2.2,11.97c0,4.1,0.68,8.09,2.2,11.75c1.42,3.48,3.64,6.79,6.46,9.61c2.94,2.68,6.2,4.9,9.97,6.42
                            c3.63,1.41,7.73,2.25,11.92,2.25c4.36,0,8.24-0.83,12.12-2.25c3.62-1.52,7-3.74,9.83-6.42c2.93-2.82,5.04-6.13,6.57-9.76
                            c1.52-3.62,2.24-7.5,2.24-11.6c0-4.31-0.72-8.3-2.24-11.97c-1.41-3.62-3.52-6.78-6.46-9.61c-2.79-2.84-6.2-4.93-9.93-6.46
                            C836.08,140.6,832.09,139.91,827.73,139.91L827.73,139.91z M827.73,159.13c2.95,0,5.3,0.95,7.04,3.05
                            c1.77,1.99,2.72,4.57,2.72,7.98c0,3.16-0.95,5.87-2.72,7.76c-1.75,1.96-4.09,2.91-7.04,2.91c-2.9,0-5.15-0.9-6.89-2.91
                            c-1.89-1.89-2.72-4.6-2.72-7.76c0-3.41,0.83-5.99,2.72-7.98C822.58,160.08,824.83,159.13,827.73,159.13L827.73,159.13z"/>
                        <path class="st0" d="M787.66,182.49c0.47-2.73,0.68-6.1,0.68-10.23v-31.09H767.7v31.34c0,3.52-0.36,5.98-1.3,7.51
                            c-0.94,1.41-2.32,2.1-4.47,2.1c-2.1,0-3.51-0.69-4.42-2.1c-0.84-1.31-1.31-3.88-1.31-7.51v-31.34h-20.52v31.09
                            c-0.12,4.35,0.24,7.66,0.72,10.23c0.44,2.68,1.39,4.78,2.43,6.57c2.37,3.62,5.51,6.31,9.5,8.19c3.89,1.99,8.46,2.93,13.6,2.93
                            c5.19,0,9.65-0.94,13.61-2.93c3.99-1.88,7.18-4.58,9.39-8.19C786.09,187.27,787.04,185.06,787.66,182.49L787.66,182.49z"/>
                        <polygon class="st0" points="887.8,141.17 867.15,141.17 867.15,198.66 907.85,198.66 907.85,180.03 887.8,180.03 887.8,141.17 	
                            "/>
                    </g>
                    </svg>
