<!-- Generator: Adobe Illustrator 23.0.0, SVG Export Plug-In . SVG Version: 6.00 Build 0)  -->
<svg version="1.1" id="iconmonstr" xmlns="http://www.w3.org/2000/svg" xmlns:xlink="http://www.w3.org/1999/xlink" x="0px" y="0px"
	 viewBox="0 0 24 24" style="enable-background:new 0 0 24 24;" xml:space="preserve">
<style type="text/css">
	.st0{fill:#212121;}
</style>
<path id="whatsapp-1" class="st0" d="M0.058,24l1.687-6.163c-1.041-1.803-1.588-3.849-1.587-5.945C0.16,5.334,5.495,0,12.05,0
	c3.182,0.002,6.168,1.24,8.413,3.488c2.245,2.248,3.48,5.236,3.479,8.414c-0.003,6.558-5.338,11.892-11.893,11.892l0,0
	c-1.99-0.001-3.951-0.5-5.688-1.447L0.058,24z M6.654,20.193c1.676,0.994,3.276,1.591,5.392,1.592c5.448,0,9.887-4.435,9.889-9.885
	c0.002-5.462-4.415-9.89-9.881-9.892c-5.452,0-9.887,4.434-9.889,9.884c-0.001,2.225,0.651,3.892,1.747,5.635l-0.999,3.648
	L6.654,20.193z M18.041,14.729c-0.074-0.124-0.271-0.198-0.569-0.348c-0.297-0.148-1.758-0.867-2.03-0.967
	c-0.273-0.099-0.471-0.148-0.669,0.149c-0.197,0.297-0.768,0.967-0.941,1.165c-0.174,0.198-0.347,0.223-0.643,0.074
	c-0.297-0.148-1.255-0.463-2.39-1.475c-0.883-0.789-1.479-1.761-1.653-2.059c-0.173-0.297-0.019-0.458,0.13-0.606
	c0.134-0.133,0.297-0.347,0.446-0.521C9.87,9.97,9.919,9.846,10.019,9.648c0.099-0.198,0.049-0.372-0.025-0.521
	C9.919,8.978,9.325,7.516,9.078,6.92c-0.241-0.58-0.486-0.501-0.668-0.51C8.236,6.401,8.038,6.4,7.839,6.4
	c-0.198,0-0.52,0.074-0.793,0.372c-0.272,0.298-1.04,1.017-1.04,2.479c0,1.463,1.065,2.876,1.213,3.074
	c0.149,0.198,2.096,3.2,5.077,4.487c0.709,0.307,1.263,0.489,1.693,0.626c0.712,0.227,1.36,0.194,1.872,0.118
	c0.571-0.086,1.758-0.72,2.006-1.413C18.115,15.448,18.115,14.854,18.041,14.729z"/>
</svg>
